<svg width="632" height="339" viewBox="0 0 632 339" fill="none" xmlns="http://www.w3.org/2000/svg">
<path d="M281.88 85.2849C281.51 86.3449 280.92 87.2549 280.11 88.0349C279.3 88.8149 278.24 89.4249 276.92 89.8749C275.6 90.3149 274 90.5449 272.1 90.5449H262.24C261.35 90.5449 260.61 90.2349 260.01 89.6249C259.41 89.0149 259.12 88.2649 259.12 87.3749V60.2549C259.12 59.3649 259.42 58.6149 260.01 58.0049C260.61 57.3949 261.35 57.0849 262.24 57.0849H270.96C272.83 57.0849 274.41 57.3249 275.71 57.7949C277.01 58.2649 278.07 58.8949 278.88 59.6749C279.69 60.4549 280.27 61.3449 280.63 62.3549C280.98 63.3649 281.16 64.3949 281.16 65.4249V66.7149C281.16 68.2149 280.83 69.5349 280.17 70.6849C279.51 71.8349 278.48 72.7149 277.07 73.3249C278.87 73.9049 280.22 74.8749 281.11 76.2349C282 77.5949 282.44 79.0549 282.44 80.6149V81.9049C282.44 83.0949 282.26 84.2249 281.89 85.2749M274.86 66.3649C274.86 65.3549 274.52 64.5349 273.85 63.9049C273.18 63.2749 272.18 62.9649 270.87 62.9649H265.41V70.9949H269.72C270.42 70.9949 271.09 70.9449 271.72 70.8349C272.35 70.7249 272.89 70.5349 273.35 70.2649C273.81 69.9849 274.17 69.6349 274.45 69.1849C274.72 68.7449 274.86 68.1949 274.86 67.5549V66.3649ZM276.1 80.1749C276.1 79.1349 275.72 78.2749 274.95 77.6049C274.18 76.9349 273.08 76.5949 271.65 76.5949H265.41V84.7149H271.97C273.5 84.7149 274.57 84.3749 275.18 83.6849C275.79 82.9949 276.1 82.1349 276.1 81.0949V80.1749Z" fill="#174F81"/>
<path d="M301.06 72.1449C300.48 72.5749 299.75 72.6949 298.86 72.5149C298.62 72.4549 298.38 72.4049 298.15 72.3749C297.92 72.3449 297.5 72.3349 296.89 72.3349C295.97 72.3349 295.15 72.5349 294.44 72.9249C293.72 73.3249 293.22 74.0149 292.95 74.9949V87.7549C292.95 88.6149 292.65 89.3349 292.05 89.9349C291.46 90.5349 290.73 90.8349 289.87 90.8349C289.01 90.8349 288.24 90.5349 287.64 89.9349C287.04 89.3449 286.75 88.6149 286.75 87.7549V73.6649C286.75 72.8649 286.61 72.3149 286.34 72.0149C286.07 71.7149 285.74 71.3849 285.38 71.0549C285.13 70.8749 284.94 70.6349 284.78 70.3449C284.63 70.0549 284.55 69.6949 284.55 69.2649C284.55 68.3749 284.83 67.7349 285.38 67.3349C285.93 66.9349 286.68 66.7349 287.63 66.7349H288.09C288.27 66.7349 288.44 66.7649 288.59 66.8249C289.45 67.0349 290.14 67.3649 290.68 67.8149C291.22 68.2649 291.64 68.7749 291.94 69.3549C292.46 68.7149 293.02 68.2049 293.61 67.8149C294.21 67.4349 294.79 67.1449 295.35 66.9449C295.92 66.7449 296.46 66.6149 296.98 66.5549C297.5 66.4949 297.94 66.4649 298.31 66.4649C298.92 66.4649 299.46 66.5249 299.94 66.6449C300.41 66.7649 300.82 66.9349 301.16 67.1449C301.74 67.5149 302.12 68.0049 302.28 68.6149C302.45 69.2249 302.44 69.8349 302.26 70.4549C302.05 71.1549 301.65 71.7249 301.07 72.1549" fill="#174F81"/>
<path d="M321.64 79.8949C321.23 80.3249 320.73 80.5349 320.15 80.5349H309.18V81.4049C309.18 82.7849 309.49 83.8549 310.12 84.6149C310.75 85.3749 311.7 85.7649 312.99 85.7649C314.12 85.7649 315.06 85.6849 315.81 85.5149C316.56 85.3449 317.33 85.0949 318.13 84.7549C318.74 84.5049 319.35 84.5449 319.94 84.8449C320.54 85.1549 320.93 85.6449 321.11 86.3149C321.32 87.0249 321.31 87.6349 321.06 88.1749C320.82 88.7149 320.4 89.1049 319.82 89.3449C318.53 89.9249 317.29 90.3149 316.08 90.5149C314.87 90.7149 313.72 90.8149 312.62 90.8149C310.85 90.8149 309.35 90.5449 308.12 89.9849C306.9 89.4349 305.9 88.7049 305.14 87.7849C304.38 86.8649 303.82 85.8049 303.49 84.5949C303.15 83.3849 302.99 82.1149 302.99 80.7649V76.4949C302.99 75.1449 303.18 73.8649 303.56 72.6349C303.94 71.4149 304.53 70.3449 305.33 69.4249C306.12 68.5049 307.13 67.7749 308.34 67.2249C309.55 66.6749 310.99 66.3949 312.68 66.3949C314.37 66.3949 315.91 66.6649 317.13 67.1949C318.35 67.7249 319.34 68.4549 320.09 69.3749C320.84 70.2949 321.39 71.3549 321.74 72.5649C322.09 73.7749 322.27 75.0349 322.27 76.3549V78.3249C322.27 78.9349 322.06 79.4549 321.65 79.8849M315.47 72.2849C314.92 71.5849 314.03 71.2249 312.81 71.2249C311.59 71.2249 310.68 71.5749 310.08 72.2849C309.49 72.9849 309.19 73.9949 309.19 75.3149V75.9149H316.3V75.3149C316.3 74.0049 316.02 72.9949 315.47 72.2849Z" fill="#174F81"/>
<path d="M338.69 89.7449C338.17 90.2849 337.53 90.5449 336.76 90.5449H335.02C333.37 90.5449 331.97 90.2949 330.82 89.7849C329.67 89.2849 328.75 88.5649 328.04 87.6249C327.34 86.6949 326.82 85.5649 326.5 84.2549C326.18 82.9449 326.02 81.4849 326.02 79.8949V71.7749H325.29C324.59 71.7749 323.99 71.5249 323.5 71.0149C323.01 70.5149 322.77 69.9049 322.77 69.2049C322.77 68.5049 323.01 67.9049 323.5 67.4149C323.99 66.9249 324.59 66.6849 325.29 66.6849H326.02V63.5649C326.02 62.7049 326.32 61.9749 326.94 61.3649C327.55 60.7549 328.29 60.4449 329.14 60.4449C329.99 60.4449 330.72 60.7549 331.32 61.3649C331.92 61.9749 332.22 62.7149 332.22 63.5649V66.6849H335.75C336.45 66.6849 337.05 66.9349 337.54 67.4149C338.03 67.9049 338.27 68.5049 338.27 69.2049C338.27 69.9049 338.02 70.5149 337.54 71.0149C337.05 71.5249 336.45 71.7749 335.75 71.7749H332.22V79.8049C332.22 81.6749 332.46 83.0149 332.95 83.8449C333.44 84.6749 334.42 85.0849 335.89 85.0849H336.76C337.52 85.0849 338.17 85.3449 338.69 85.8649C339.21 86.3849 339.47 87.0249 339.47 87.7949C339.47 88.5649 339.21 89.2149 338.69 89.7449Z" fill="#174F81"/>
<path d="M360.09 90.2249C359.52 90.6249 358.77 90.8249 357.82 90.8249C357.21 90.8249 356.66 90.7249 356.17 90.5249C355.68 90.3249 355.28 90.1049 354.98 89.8549C354.67 89.6449 354.37 89.3149 354.06 88.8949C353.17 89.6549 352.16 90.1749 351.01 90.4349C349.86 90.6949 348.78 90.8249 347.78 90.8249C345 90.8249 342.92 90.1749 341.56 88.8749C340.2 87.5749 339.52 85.8449 339.52 83.6649V83.3449C339.52 81.1749 340.29 79.4649 341.84 78.2349C343.38 76.9949 345.64 76.3749 348.61 76.3749H352.69V75.5049C352.69 74.1549 352.46 73.1249 352 72.4049C351.54 71.6849 350.61 71.3249 349.2 71.3249C348.22 71.3249 347.42 71.4249 346.79 71.6249C346.16 71.8249 345.59 72.0649 345.07 72.3349C344.3 72.7349 343.61 72.8149 342.98 72.5849C342.35 72.3549 341.88 71.9849 341.56 71.4849C341.24 70.9849 341.12 70.4049 341.22 69.7649C341.31 69.1249 341.71 68.5749 342.41 68.1149C343.39 67.4749 344.54 67.0349 345.87 66.7849C347.2 66.5449 348.48 66.4149 349.7 66.4149C351.35 66.4149 352.76 66.6049 353.92 66.9849C355.08 67.3649 356.03 67.9549 356.76 68.7549C357.49 69.5549 358.03 70.5649 358.37 71.8049C358.71 73.0449 358.87 74.5249 358.87 76.2349V83.8949C358.87 84.6949 358.99 85.2449 359.21 85.5449C359.44 85.8549 359.72 86.1549 360.06 86.4649C360.3 86.6749 360.51 86.9249 360.68 87.2149C360.85 87.5049 360.93 87.8649 360.93 88.2949C360.93 89.1849 360.65 89.8249 360.08 90.2249M352.68 80.8149H349.33C347.95 80.8149 347 81.0649 346.46 81.5449C345.92 82.0349 345.66 82.6649 345.66 83.4249V83.7449C345.66 84.6049 345.94 85.2549 346.49 85.7149C347.04 86.1749 347.91 86.4049 349.11 86.4049C350.18 86.4049 351.04 86.1149 351.7 85.5349C352.36 84.9549 352.69 84.0549 352.69 82.8249V80.8049L352.68 80.8149Z" fill="#174F81"/>
<path d="M382.23 88.4749C382.23 91.6849 381.39 94.2349 379.71 96.1149C378.03 97.9949 375.47 98.9349 372.05 98.9349C370.98 98.9349 369.86 98.8549 368.7 98.7049C367.54 98.5549 366.5 98.2749 365.58 97.8749C365.06 97.6349 364.63 97.3049 364.29 96.9149C363.95 96.5149 363.79 96.0249 363.79 95.4449C363.79 94.7749 364.04 94.1849 364.55 93.6749C365.05 93.1649 365.66 92.9349 366.36 92.9649C366.7 92.9949 367.02 93.0549 367.32 93.1449C367.63 93.2349 367.96 93.3349 368.33 93.4449C368.7 93.5549 369.13 93.6549 369.64 93.7449C370.14 93.8349 370.79 93.8849 371.59 93.8849C374.56 93.8849 376.04 92.2049 376.04 88.8349V87.6449C375.34 88.0749 374.55 88.4249 373.68 88.7049C372.81 88.9749 371.94 89.1149 371.09 89.1149C369.53 89.1149 368.21 88.8849 367.14 88.4249C366.07 87.9649 365.21 87.2949 364.57 86.4049C363.93 85.5149 363.47 84.4249 363.19 83.1249C362.91 81.8249 362.78 80.3349 362.78 78.6549V76.9149C362.78 75.2649 362.92 73.7849 363.22 72.4849C363.51 71.1849 363.99 70.0849 364.67 69.1849C365.34 68.2849 366.21 67.5949 367.26 67.1249C368.31 66.6549 369.61 66.4149 371.14 66.4149C372.12 66.4149 373.04 66.5849 373.92 66.9249C374.79 67.2649 375.58 67.7349 376.28 68.3449C376.53 67.7949 376.9 67.3349 377.4 66.9649C377.9 66.5949 378.48 66.4149 379.12 66.4149C380.1 66.4149 380.86 66.7249 381.41 67.3349C381.96 67.9449 382.24 68.6849 382.24 69.5349V88.4849L382.23 88.4749ZM374.32 72.0249C373.69 71.7649 373.09 71.6349 372.51 71.6349C370.15 71.6349 368.98 73.0849 368.98 75.9949V79.7149C368.98 81.0949 369.23 82.1349 369.74 82.8349C370.24 83.5349 371.17 83.8849 372.52 83.8849C373.04 83.8849 373.63 83.7749 374.29 83.5649C374.95 83.3549 375.54 83.0349 376.06 82.6049V73.1949C375.54 72.6749 374.97 72.2849 374.34 72.0249" fill="#174F81"/>
<path d="M405.54 89.9249C404.93 90.5249 404.19 90.8249 403.34 90.8249C402.49 90.8249 401.76 90.5249 401.16 89.9249C400.56 89.3249 400.27 88.6049 400.27 87.7449V75.8149C400.27 75.3549 400.22 74.9049 400.13 74.4649C400.04 74.0249 399.88 73.6349 399.65 73.3149C399.42 72.9949 399.09 72.7349 398.66 72.5349C398.23 72.3349 397.68 72.2349 397.01 72.2349C396.18 72.2349 395.45 72.4049 394.81 72.7349C394.17 73.0749 393.63 73.5349 393.2 74.1149V87.7449C393.2 88.6049 392.9 89.3249 392.3 89.9249C391.7 90.5249 390.98 90.8249 390.12 90.8249C389.26 90.8249 388.49 90.5249 387.89 89.9249C387.29 89.3249 387 88.6049 387 87.7449V73.6549C387 72.8649 386.86 72.3149 386.59 72.0049C386.31 71.6949 385.99 71.3749 385.63 71.0449C385.38 70.8649 385.19 70.6249 385.03 70.3349C384.88 70.0449 384.8 69.6849 384.8 69.2549C384.8 68.3649 385.09 67.7249 385.67 67.3249C386.25 66.9249 386.98 66.7349 387.87 66.7349C388.36 66.7349 388.86 66.8149 389.36 66.9649C389.86 67.1149 390.33 67.3649 390.76 67.6949C391.16 68.0049 391.51 68.3849 391.82 68.8449C392.65 68.0749 393.62 67.4849 394.76 67.0549C395.89 66.6249 397.21 66.4149 398.71 66.4149C400.21 66.4149 401.4 66.6349 402.38 67.0549C403.36 67.4849 404.15 68.0749 404.77 68.8249C405.38 69.5749 405.82 70.4849 406.08 71.5549C406.34 72.6249 406.47 73.8049 406.47 75.0849V87.7449C406.47 88.6049 406.16 89.3249 405.55 89.9249" fill="#174F81"/>
<path d="M428.55 79.8949C428.14 80.3249 427.64 80.5349 427.06 80.5349H416.09V81.4049C416.09 82.7849 416.4 83.8549 417.03 84.6149C417.66 85.3749 418.61 85.7649 419.9 85.7649C421.03 85.7649 421.97 85.6849 422.72 85.5149C423.47 85.3449 424.24 85.0949 425.04 84.7549C425.65 84.5049 426.26 84.5449 426.85 84.8449C427.45 85.1549 427.84 85.6449 428.02 86.3149C428.23 87.0249 428.22 87.6349 427.97 88.1749C427.73 88.7149 427.31 89.1049 426.73 89.3449C425.44 89.9249 424.2 90.3149 422.99 90.5149C421.78 90.7149 420.63 90.8149 419.53 90.8149C417.76 90.8149 416.26 90.5449 415.03 89.9849C413.81 89.4349 412.81 88.7049 412.05 87.7849C411.28 86.8649 410.73 85.8049 410.4 84.5949C410.06 83.3849 409.9 82.1149 409.9 80.7649V76.4949C409.9 75.1449 410.09 73.8649 410.47 72.6349C410.85 71.4149 411.44 70.3449 412.24 69.4249C413.03 68.5049 414.04 67.7749 415.24 67.2249C416.45 66.6749 417.89 66.3949 419.58 66.3949C421.27 66.3949 422.81 66.6649 424.03 67.1949C425.25 67.7249 426.24 68.4549 426.99 69.3749C427.74 70.2949 428.29 71.3549 428.64 72.5649C428.99 73.7749 429.17 75.0349 429.17 76.3549V78.3249C429.17 78.9349 428.96 79.4549 428.55 79.8849M422.38 72.2849C421.83 71.5849 420.94 71.2249 419.72 71.2249C418.5 71.2249 417.59 71.5749 416.99 72.2849C416.39 72.9849 416.09 73.9949 416.09 75.3149V75.9149H423.2V75.3149C423.2 74.0049 422.92 72.9949 422.37 72.2849" fill="#174F81"/>
<path d="M465.63 84.8749C465 86.2349 464.14 87.3649 463.04 88.2749C461.94 89.1749 460.64 89.8549 459.14 90.2949C457.64 90.7349 456 90.9649 454.23 90.9649C452.61 90.9649 451.09 90.8749 449.69 90.6949C448.28 90.5149 446.92 90.1749 445.61 89.6849C444.88 89.4149 444.34 89.0049 444 88.4649C443.66 87.9349 443.5 87.3749 443.5 86.7949C443.5 85.9949 443.74 85.3049 444.21 84.7049C444.68 84.1149 445.35 83.8149 446.21 83.8149C446.73 83.8149 447.24 83.9349 447.75 84.1549C448.25 84.3849 448.95 84.6049 449.84 84.8249C450.33 84.9449 450.89 85.0549 451.51 85.1449C452.14 85.2349 452.86 85.2849 453.69 85.2849C456.01 85.2849 457.7 84.8849 458.74 84.0949C459.78 83.2949 460.3 82.2149 460.3 80.8349C460.3 79.8249 459.99 79.0449 459.36 78.4949C458.73 77.9449 457.55 77.4249 455.8 76.9349C455.22 76.7849 454.57 76.6249 453.85 76.4549C453.13 76.2849 452.4 76.1049 451.67 75.9249C450.94 75.7449 450.22 75.5349 449.51 75.3049C448.81 75.0749 448.19 74.8249 447.68 74.5449C446.52 73.8749 445.56 72.9749 444.81 71.8349C444.06 70.7049 443.69 69.1749 443.69 67.2449C443.69 65.5349 444 64.0149 444.61 62.7049C445.22 61.3949 446.05 60.2849 447.09 59.4049C448.13 58.5149 449.35 57.8449 450.74 57.3849C452.13 56.9249 453.61 56.6949 455.17 56.6949C456.55 56.6949 457.84 56.7749 459.05 56.9249C460.26 57.0749 461.44 57.3549 462.61 57.7549C463.37 58.0049 463.93 58.3849 464.28 58.9049C464.63 59.4249 464.81 59.9949 464.81 60.6049C464.81 61.3649 464.56 62.0549 464.05 62.6649C463.55 63.2749 462.83 63.5849 461.92 63.5849C461.46 63.5849 461.01 63.4949 460.57 63.3049C460.13 63.1249 459.55 62.9549 458.85 62.7949C458.45 62.7049 458 62.6149 457.5 62.5449C457 62.4649 456.39 62.4349 455.69 62.4349C453.88 62.4349 452.49 62.7849 451.51 63.4949C450.53 64.1949 450.04 65.1749 450.04 66.4249C450.04 67.5849 450.41 68.4249 451.14 68.9449C451.87 69.4649 453.02 69.9249 454.58 70.3249C455.28 70.5049 456.02 70.6849 456.78 70.8549C457.54 71.0249 458.29 71.2049 459.03 71.4049C459.76 71.6049 460.46 71.8249 461.12 72.0749C461.78 72.3149 462.37 72.5949 462.89 72.9049C464.18 73.6949 465.12 74.7049 465.71 75.9049C466.31 77.1149 466.6 78.5249 466.6 80.1449C466.6 81.9549 466.29 83.5349 465.66 84.8949" fill="#174F81"/>
<path d="M490.31 90.2249C489.71 90.6249 488.97 90.8249 488.08 90.8249C487.59 90.8249 487.09 90.7449 486.59 90.5749C486.09 90.4049 485.62 90.1549 485.19 89.8149C484.73 89.4749 484.33 89.0349 484 88.4849C483.2 89.2149 482.25 89.7949 481.13 90.2049C480.01 90.6149 478.72 90.8249 477.25 90.8249C475.87 90.8249 474.7 90.6149 473.72 90.2049C472.74 89.7949 471.95 89.2049 471.33 88.4349C470.72 87.6749 470.27 86.7649 469.98 85.7249C469.69 84.6849 469.54 83.5249 469.54 82.2349V69.5249C469.54 68.6649 469.84 67.9349 470.43 67.3249C471.03 66.7149 471.75 66.4049 472.61 66.4049C473.47 66.4049 474.2 66.7149 474.81 67.3249C475.42 67.9349 475.73 68.6749 475.73 69.5249V81.4549C475.73 81.9749 475.78 82.4549 475.87 82.9049C475.96 83.3449 476.12 83.7249 476.35 84.0249C476.58 84.3249 476.9 84.5649 477.31 84.7349C477.72 84.9049 478.27 84.9849 478.94 84.9849C479.8 84.9849 480.55 84.8149 481.19 84.4849C481.83 84.1449 482.35 83.6849 482.75 83.1049V69.5249C482.75 68.6649 483.06 67.9349 483.67 67.3249C484.28 66.7149 485.02 66.4049 485.87 66.4049C486.72 66.4049 487.45 66.7149 488.05 67.3249C488.65 67.9349 488.94 68.6749 488.94 69.5249V83.8849C488.94 84.6849 489.08 85.2349 489.35 85.5349C489.63 85.8449 489.95 86.1449 490.31 86.4549C490.56 86.6349 490.76 86.8849 490.93 87.1849C491.1 87.4849 491.18 87.8549 491.18 88.2849C491.18 89.1749 490.88 89.8149 490.29 90.2149" fill="#174F81"/>
<path d="M513.19 90.2249C512.61 90.6249 511.87 90.8249 510.99 90.8249C510.5 90.8249 510 90.7449 509.5 90.5749C509 90.4049 508.53 90.1549 508.1 89.8149C507.83 89.6049 507.53 89.3249 507.23 88.9849C506.46 89.5649 505.56 90.0149 504.52 90.3349C503.48 90.6549 502.45 90.8149 501.45 90.8149C498.42 90.8149 496.19 89.9849 494.75 88.3149C493.31 86.6449 492.59 84.2049 492.59 80.9949V77.2749C492.59 75.5949 492.74 74.0749 493.03 72.7349C493.32 71.3849 493.79 70.2449 494.45 69.3149C495.11 68.3849 495.97 67.6649 497.04 67.1549C498.11 66.6549 499.43 66.3949 500.99 66.3949C501.88 66.3949 502.75 66.5249 503.61 66.7849C504.47 67.0449 505.22 67.3849 505.86 67.8149L505.81 60.3849C505.81 59.5249 506.12 58.8049 506.73 58.2049C507.34 57.6049 508.08 57.3149 508.93 57.3149C509.78 57.3149 510.52 57.6149 511.13 58.2049C511.74 58.8049 512.05 59.5249 512.05 60.3849V83.8749C512.05 84.6749 512.16 85.2249 512.37 85.5249C512.58 85.8349 512.87 86.1349 513.24 86.4449C513.48 86.6249 513.68 86.8749 513.84 87.1749C513.99 87.4849 514.07 87.8449 514.07 88.2749C514.07 89.1649 513.78 89.8049 513.2 90.2049M505.84 73.0649C505.35 72.6349 504.8 72.2949 504.19 72.0349C503.58 71.7749 503 71.6449 502.44 71.6449C501.09 71.6449 500.15 72.0249 499.6 72.7949C499.05 73.5549 498.77 74.6549 498.77 76.0949V81.4649C498.77 82.8449 499.05 83.8749 499.62 84.5649C500.19 85.2549 501.14 85.5949 502.49 85.5949C503.65 85.5949 504.77 85.1849 505.84 84.3549V73.0649Z" fill="#174F81"/>
<path d="M482.06 82.8149C482.15 82.3749 482.2 81.8949 482.2 81.3749V69.4449C482.2 68.5849 482.51 67.8549 483.12 67.2449C483.73 66.6349 484.46 66.3249 485.32 66.3249C486.18 66.3249 486.9 66.6349 487.5 67.2449C488.1 67.8549 488.39 68.5949 488.39 69.4449V82.1549L488.35 82.5349C488.35 84.7849 487.44 86.6949 485.62 88.2749C483.8 89.8549 481.6 90.6449 479.02 90.6449C476.44 90.6449 474.23 89.8549 472.41 88.2749C470.6 86.6949 469.57 85.1849 469.57 82.9349V69.4349C469.57 68.5749 469.87 67.8449 470.47 67.2349C471.07 66.6249 471.79 66.3149 472.65 66.3149C473.51 66.3149 474.24 66.6249 474.85 67.2349C475.46 67.8449 475.77 68.5849 475.77 69.4349V81.3649C475.77 81.8849 475.81 82.3649 475.91 82.8049L475.89 82.4849C475.89 83.2249 476.19 83.8649 476.79 84.3849C477.39 84.9049 478.12 85.1749 478.98 85.1749C479.84 85.1749 480.56 84.9149 481.17 84.3849C481.77 83.8649 482.08 83.2249 482.08 82.4849" fill="#174F81"/>
<path d="M64.66 261.345C61.69 256.665 60.19 251.365 60.19 245.435V155.135C60.19 146.805 57.26 139.705 51.39 133.845C45.52 127.975 38.42 125.035 30.1 125.035C21.78 125.035 14.67 127.965 8.81 133.845C2.94 139.715 0 146.805 0 155.135V245.435C0 263.875 4.77 280.285 14.26 294.655C24.39 289.195 34.61 282.975 44.88 275.885C51.79 271.115 58.38 266.265 64.67 261.345" fill="#00A6E2"/>
<path d="M150.49 125.035C142.16 125.035 135.06 127.975 129.19 133.845C123.32 139.715 120.39 146.805 120.39 155.135V207.175C141.18 181.665 155.96 155.365 166.2 129.375C161.57 126.485 156.33 125.035 150.49 125.035Z" fill="#00A6E2"/>
<path d="M260.66 182.035C232.6 163.895 205.41 142.825 180.59 118.415V155.145C180.59 146.815 177.65 139.715 171.79 133.855C170.04 132.105 168.17 130.615 166.2 129.385C155.96 155.375 141.19 181.675 120.4 207.185V245.445C120.4 253.775 117.47 260.875 111.6 266.735C105.73 272.605 98.63 275.535 90.3 275.535C81.97 275.535 74.87 272.605 69 266.735C67.31 265.045 65.87 263.245 64.66 261.345C58.37 266.265 51.78 271.115 44.87 275.885C34.6 282.975 24.38 289.205 14.25 294.655C17.67 299.825 21.68 304.745 26.33 309.395C43.89 326.955 65.21 335.735 90.29 335.735C115.37 335.735 136.57 326.935 154.18 309.325C171.79 291.715 180.59 270.425 180.59 245.445V230.395C180.59 255.575 188.3 277.555 203.7 296.355C214.62 250.695 235.1 213.035 260.66 182.045" fill="#47C1F1"/>
<path d="M211.44 304.885C226.4 319.845 243.62 329.365 263.09 333.435C267.76 313.415 274.43 293.995 282.61 275.415C271.59 274.695 262.06 270.325 254.03 262.295C245.2 253.465 240.79 242.835 240.79 230.385C240.79 217.935 245.2 207.305 254.03 198.475C258.85 193.655 264.21 190.165 270.1 187.975C266.95 186.025 263.8 184.045 260.67 182.015C235.11 213.005 214.61 250.665 203.7 296.315C206.1 299.245 208.68 302.095 211.45 304.865" fill="#008CCE"/>
<path d="M519.84 283.465C504.22 280.345 484.5 275.895 462.05 269.705C462.21 270.535 462.29 271.415 462.29 272.355C462.29 278.635 457.58 284.515 445.03 284.515C421.87 284.515 408.77 270.815 392.82 267.565C383.22 280.605 372.97 292.585 362.24 303.675C369.27 326.115 407.89 338.645 442.67 338.645C480.06 338.645 513.07 318.395 519.83 283.465" fill="#008CCE"/>
<path d="M240.79 134.825V86.3849C240.79 78.0549 237.86 70.9549 231.98 65.0849C226.11 59.2149 219.01 56.2849 210.69 56.2849C202.37 56.2849 195.27 59.2149 189.39 65.0849C183.52 70.9549 180.59 78.0549 180.59 86.3849V118.415C205.42 142.825 232.6 163.895 260.66 182.025C277.45 161.675 296.43 144.205 316.31 129.215C306.76 126.435 296.64 125.035 285.93 125.035C269.47 125.035 254.43 128.295 240.78 134.815" fill="#008ACF"/>
<path d="M441.51 171.565C460.33 171.565 478.38 186.865 490.54 186.865C505.05 186.865 516.03 176.275 516.03 160.975C516.03 129.205 470.14 117.445 445.43 117.445C444.43 117.445 443.43 117.465 442.44 117.495C446.55 134.275 443.29 157.105 440.33 171.605C440.72 171.585 441.11 171.565 441.5 171.565" fill="#0072AA"/>
<path d="M521.12 270.015C521.12 214.805 456.28 208.765 433.35 195.005C426.39 212.125 418.43 227.835 409.68 242.335C411.36 243.065 413.06 243.785 414.83 244.515C446.37 257.565 460.14 259.565 462.04 269.705C484.49 275.895 504.21 280.345 519.83 283.465C520.66 279.195 521.11 274.715 521.11 270.005" fill="#0072AA"/>
<path d="M386.2 266.875C385.83 266.875 385.46 266.885 385.09 266.905C387.48 260.345 389.17 253.505 390.18 246.375C370.72 239.045 350.51 230.565 330.12 220.765C330.76 223.845 331.08 227.045 331.08 230.385C331.08 242.825 326.66 253.465 317.84 262.295C309.01 271.125 298.37 275.535 285.93 275.535C284.81 275.535 283.7 275.485 282.61 275.415C274.43 294.005 267.76 313.415 263.09 333.435C270.39 334.965 278 335.735 285.93 335.735C315.03 335.735 339.86 325.455 360.43 304.885C360.99 304.325 361.54 303.765 362.09 303.195C362.14 303.355 362.2 303.515 362.26 303.685C372.98 292.595 383.24 280.615 392.84 267.575C390.69 267.135 388.49 266.885 386.21 266.885" fill="#0060AC"/>
<path d="M440.33 171.605C443.28 157.105 446.55 134.275 442.44 117.495C404.64 118.595 378.78 140.445 369.95 166.655C361.31 185.485 353.25 199.735 337.37 224.195C355.3 232.555 373.03 239.905 390.18 246.365C390.79 242.015 391.15 237.555 391.25 232.995C396.57 236.305 402.73 239.325 409.68 242.335C418.43 227.835 426.39 212.125 433.35 195.005C428.42 192.045 425.42 188.745 425.42 184.505C425.42 175.915 432.54 171.955 440.33 171.595" fill="#004E90"/>
<path d="M369.95 166.665C367.59 163.625 365.02 160.665 362.27 157.785C348.64 171.975 335.41 187.735 323.18 204.795C326.41 209.375 329 214.495 330.13 220.765C332.54 221.925 334.97 223.075 337.38 224.195C353.26 199.735 361.32 185.485 369.96 166.655" fill="#00478B"/>
<path d="M597.09 209.055C615.63 209.055 631.41 193.665 631.41 174.735C631.41 155.805 615.63 140.415 597.09 140.415C578.55 140.415 562.77 156.195 562.77 174.735C562.77 193.275 578.55 209.055 597.09 209.055Z" fill="#174F81"/>
<path d="M597.09 240.775C578.55 240.775 562.77 256.555 562.77 275.095C562.77 293.635 578.55 309.425 597.09 309.425C615.63 309.425 631.41 294.035 631.41 275.095C631.41 256.155 615.63 240.775 597.09 240.775Z" fill="#174F81"/>
<path d="M360.43 155.895C347.43 142.895 332.71 134.005 316.3 129.215C315.89 129.525 315.47 129.835 315.05 130.155C314.7 130.415 314.36 130.685 314.01 130.955C313.11 131.645 312.22 132.335 311.32 133.035C310.95 133.315 310.59 133.605 310.23 133.885C309.13 134.755 308.03 135.635 306.93 136.515C306.55 136.825 306.17 137.135 305.8 137.435C304.9 138.165 304 138.905 303.1 139.655C302.8 139.905 302.49 140.155 302.19 140.415C301.1 141.325 300.01 142.255 298.93 143.185C298.54 143.515 298.16 143.855 297.77 144.185C296.79 145.035 295.81 145.885 294.84 146.745C294.53 147.025 294.21 147.305 293.9 147.585C292.95 148.435 292 149.295 291.05 150.155C290.67 150.505 290.29 150.855 289.91 151.205C288.85 152.175 287.8 153.165 286.75 154.155C286.45 154.445 286.15 154.735 285.85 155.015C285 155.825 284.16 156.645 283.31 157.465C282.95 157.815 282.6 158.165 282.24 158.515C281.21 159.525 280.19 160.545 279.17 161.575C278.83 161.925 278.49 162.275 278.15 162.615C277.34 163.445 276.53 164.285 275.72 165.125C275.4 165.455 275.08 165.785 274.76 166.125C273.76 167.175 272.77 168.235 271.78 169.305C271.42 169.695 271.06 170.085 270.7 170.485C269.88 171.385 269.06 172.295 268.24 173.205C267.96 173.515 267.68 173.825 267.4 174.135C266.46 175.205 265.52 176.275 264.59 177.365C264.23 177.785 263.88 178.195 263.52 178.615C262.59 179.705 261.67 180.795 260.76 181.895C260.72 181.945 260.68 181.985 260.65 182.035C263.78 184.065 266.93 186.035 270.08 187.985C274.99 186.155 280.27 185.235 285.92 185.235C298.36 185.235 309 189.645 317.83 198.475C319.84 200.485 321.6 202.585 323.15 204.785C335.39 187.725 348.61 171.965 362.24 157.775C361.64 157.145 361.03 156.515 360.41 155.885" fill="#00609F"/>
<path d="M288.18 40.5649C287.55 42.3749 286.57 43.9649 285.25 45.3249C283.93 46.6849 282.27 47.7649 280.28 48.5549C278.29 49.3449 275.93 49.7449 273.2 49.7449C270.47 49.7449 268.12 49.3449 266.12 48.5549C264.13 47.7649 262.48 46.6849 261.18 45.3249C259.88 43.9649 258.91 42.3749 258.28 40.5649C257.65 38.7549 257.34 36.8149 257.34 34.7349V8.3849C257.34 7.2049 257.74 6.2149 258.53 5.3949C259.32 4.5849 260.31 4.1749 261.49 4.1749C262.67 4.1749 263.65 4.5849 264.45 5.3949C265.24 6.2049 265.64 7.2049 265.64 8.3849V34.3749C265.64 35.3149 265.75 36.2549 265.97 37.2149C266.19 38.1749 266.58 39.0349 267.13 39.8049C267.68 40.5749 268.44 41.2049 269.42 41.6949C270.4 42.1849 271.66 42.4249 273.2 42.4249C274.74 42.4249 275.95 42.1849 276.92 41.6949C277.9 41.2049 278.67 40.5749 279.24 39.8049C279.81 39.0349 280.2 38.1649 280.4 37.2149C280.6 36.2549 280.7 35.3149 280.7 34.3749V8.3849C280.7 7.2049 281.11 6.2149 281.92 5.3949C282.73 4.5849 283.73 4.1749 284.91 4.1749C286.09 4.1749 287.09 4.5849 287.9 5.3949C288.71 6.2049 289.12 7.2049 289.12 8.3849V34.7349C289.12 36.8149 288.8 38.7549 288.17 40.5649" fill="#174F81"/>
<path d="M320.84 48.3649C320.03 49.1549 319.05 49.5549 317.91 49.5549C316.77 49.5549 315.81 49.1549 315.01 48.3649C314.22 47.5749 313.82 46.6049 313.82 45.4649V29.6049C313.82 28.9949 313.76 28.3949 313.64 27.8049C313.52 27.2149 313.3 26.7049 313 26.2849C312.69 25.8549 312.26 25.5149 311.69 25.2449C311.12 24.9849 310.39 24.8449 309.49 24.8449C308.39 24.8449 307.42 25.0649 306.56 25.5149C305.71 25.9649 304.99 26.5749 304.42 27.3449V45.4649C304.42 46.6049 304.02 47.5649 303.23 48.3649C302.44 49.1549 301.47 49.5549 300.33 49.5549C299.19 49.5549 298.17 49.1549 297.37 48.3649C296.58 47.5749 296.18 46.6049 296.18 45.4649V26.7349C296.18 25.6749 296 24.9449 295.63 24.5449C295.26 24.1349 294.84 23.7149 294.35 23.2649C294.03 23.0249 293.76 22.7049 293.56 22.3149C293.36 21.9249 293.26 21.4549 293.26 20.8849C293.26 19.7049 293.65 18.8549 294.42 18.3249C295.19 17.7949 296.17 17.5349 297.35 17.5349C298 17.5349 298.66 17.6349 299.33 17.8449C300 18.0449 300.62 18.3749 301.19 18.8249C301.72 19.2349 302.19 19.7349 302.59 20.3549C303.69 19.3349 304.99 18.5449 306.49 17.9749C307.99 17.4049 309.74 17.1249 311.74 17.1249C313.74 17.1249 315.32 17.4149 316.62 17.9749C317.92 18.5449 318.98 19.3249 319.79 20.3249C320.6 21.3249 321.18 22.5349 321.53 23.9549C321.87 25.3749 322.05 26.9449 322.05 28.6549V45.4949C322.05 46.6349 321.64 47.5949 320.83 48.3949" fill="#174F81"/>
<path d="M335.79 11.6449C334.89 12.5149 333.82 12.9549 332.56 12.9549C331.3 12.9549 330.16 12.5149 329.27 11.6449C328.38 10.7749 327.93 9.6849 327.93 8.3849C327.93 7.0849 328.38 5.9949 329.27 5.1249C330.16 4.2549 331.26 3.8149 332.56 3.8149C333.86 3.8149 334.9 4.2549 335.79 5.1249C336.68 5.9949 337.13 7.0849 337.13 8.3849C337.13 9.6849 336.68 10.7749 335.79 11.6449ZM335.45 48.3649C334.66 49.1549 333.69 49.5549 332.55 49.5549C331.41 49.5549 330.39 49.1549 329.59 48.3649C328.8 47.5749 328.4 46.6049 328.4 45.4649V21.2449C328.4 20.1049 328.8 19.1249 329.59 18.3149C330.38 17.5049 331.37 17.0949 332.55 17.0949C333.73 17.0949 334.65 17.5049 335.45 18.3149C336.25 19.1249 336.64 20.1049 336.64 21.2449V45.4649C336.64 46.6049 336.24 47.5649 335.45 48.3649Z" fill="#174F81"/>
<path d="M363.88 34.0649C362.39 38.0549 360.88 41.8549 359.34 45.4749C358.61 47.2249 357.78 48.3449 356.87 48.8249C355.96 49.3149 354.97 49.5549 353.91 49.5549C352.73 49.5549 351.7 49.3049 350.83 48.7949C349.96 48.2849 349.17 47.1749 348.48 45.4749C347.06 41.8949 345.62 38.0649 344.18 33.9749C342.74 29.8849 341.43 25.8949 340.25 21.9849C340.01 21.2549 339.96 20.5949 340.1 20.0049C340.24 19.4149 340.51 18.9049 340.89 18.4849C341.28 18.0549 341.74 17.7249 342.29 17.4749C342.84 17.2349 343.4 17.1049 343.97 17.1049C344.7 17.1049 345.38 17.3149 346.01 17.7449C346.64 18.1749 347.12 18.8549 347.44 19.7849C347.93 21.2849 348.44 22.8649 348.97 24.5149C349.5 26.1649 350.04 27.8149 350.59 29.4849C351.14 31.1549 351.7 32.8249 352.27 34.4849C352.84 36.1549 353.41 37.7349 353.98 39.2449C355.12 36.1949 356.27 32.9649 357.43 29.5449C358.59 26.1249 359.68 22.8749 360.69 19.7849C361.02 18.8549 361.5 18.1649 362.15 17.7449C362.8 17.3149 363.51 17.1049 364.28 17.1049C364.89 17.1049 365.47 17.2249 366.02 17.4749C366.57 17.7149 367.04 18.0649 367.42 18.5149C367.81 18.9649 368.07 19.5049 368.21 20.1349C368.35 20.7649 368.3 21.4449 368.06 22.1749C366.76 26.1149 365.37 30.0849 363.88 34.0749" fill="#174F81"/>
<path d="M395.48 35.0349C394.93 35.6049 394.27 35.8849 393.5 35.8849H378.92V37.0449C378.92 38.8749 379.34 40.2949 380.17 41.3149C381 42.3349 382.27 42.8349 383.98 42.8349C385.48 42.8349 386.73 42.7249 387.73 42.4949C388.73 42.2749 389.75 41.9349 390.81 41.4849C391.62 41.1549 392.43 41.2049 393.22 41.6049C394.01 42.0149 394.53 42.6649 394.78 43.5549C395.06 44.4949 395.04 45.3149 394.72 46.0249C394.39 46.7349 393.85 47.2549 393.07 47.5849C391.36 48.3549 389.7 48.8749 388.1 49.1449C386.49 49.4049 384.96 49.5449 383.49 49.5449C381.13 49.5449 379.14 49.1749 377.51 48.4449C375.88 47.7149 374.56 46.7349 373.54 45.5149C372.52 44.2949 371.79 42.8849 371.34 41.2749C370.89 39.6649 370.67 37.9749 370.67 36.1849V30.5149C370.67 28.7249 370.92 27.0149 371.43 25.3949C371.94 23.7649 372.72 22.3449 373.78 21.1249C374.84 19.9049 376.17 18.9249 377.78 18.1949C379.39 17.4649 381.31 17.0949 383.54 17.0949C385.77 17.0949 387.83 17.4549 389.46 18.1649C391.09 18.8749 392.4 19.8449 393.39 21.0649C394.39 22.2849 395.12 23.6949 395.59 25.3049C396.06 26.9149 396.29 28.5949 396.29 30.3349V32.9549C396.29 33.7649 396.01 34.4549 395.47 35.0249M387.27 24.9149C386.54 23.9749 385.36 23.5149 383.73 23.5149C382.1 23.5149 380.89 23.9849 380.1 24.9149C379.31 25.8549 378.91 27.1949 378.91 28.9449V29.7349H388.37V28.9449C388.37 27.1949 388 25.8549 387.27 24.9149Z" fill="#174F81"/>
<path d="M421.19 24.7349C420.42 25.3049 419.44 25.4649 418.26 25.2249C417.93 25.1449 417.62 25.0849 417.31 25.0449C417.01 25.0049 416.45 24.9849 415.63 24.9849C414.41 24.9849 413.32 25.2449 412.37 25.7749C411.41 26.3049 410.75 27.2149 410.39 28.5249V45.4849C410.39 46.6249 409.99 47.5849 409.2 48.3849C408.41 49.1749 407.44 49.5749 406.3 49.5749C405.16 49.5749 404.13 49.1749 403.34 48.3849C402.55 47.5949 402.15 46.6249 402.15 45.4849V26.7549C402.15 25.6949 401.97 24.9649 401.6 24.5549C401.23 24.1449 400.81 23.7249 400.32 23.2749C399.99 23.0349 399.73 22.7149 399.53 22.3249C399.33 21.9449 399.23 21.4649 399.23 20.8949C399.23 19.7149 399.6 18.8649 400.33 18.3349C401.06 17.8049 402.06 17.5449 403.32 17.5449H403.93C404.17 17.5449 404.4 17.5849 404.6 17.6649C405.74 17.9549 406.66 18.3849 407.38 18.9749C408.09 19.5649 408.65 20.2449 409.06 21.0149C409.75 20.1649 410.49 19.4849 411.29 18.9749C412.08 18.4649 412.86 18.0849 413.61 17.8149C414.36 17.5549 415.08 17.3749 415.78 17.2949C416.47 17.2149 417.06 17.1749 417.55 17.1749C418.36 17.1749 419.08 17.2549 419.72 17.4149C420.35 17.5749 420.89 17.8049 421.34 18.0849C422.11 18.5749 422.61 19.2249 422.83 20.0349C423.05 20.8449 423.04 21.6649 422.8 22.4749C422.51 23.4149 421.99 24.1649 421.21 24.7349" fill="#174F81"/>
<path d="M446.32 44.1249C445.59 45.3849 444.63 46.4249 443.45 47.2349C442.27 48.0449 440.9 48.6349 439.33 49.0049C437.76 49.3749 436.17 49.5549 434.54 49.5549C432.38 49.5549 430.65 49.4349 429.33 49.1849C428.01 48.9449 426.82 48.6349 425.76 48.2749C424.87 47.9549 424.25 47.3549 423.9 46.4749C423.55 45.6049 423.5 44.7349 423.75 43.8849C424.08 42.8649 424.69 42.1649 425.58 41.7849C426.47 41.4049 427.35 41.3649 428.2 41.6949C429.09 42.0249 430 42.2949 430.91 42.5149C431.82 42.7349 433.07 42.8549 434.66 42.8549C436.25 42.8549 437.41 42.5949 438.29 42.0649C439.16 41.5349 439.6 40.8049 439.6 39.8649C439.6 39.0949 439.35 38.4949 438.84 38.0649C438.33 37.6349 437.68 37.3049 436.89 37.0549C436.1 36.8149 435.18 36.6049 434.14 36.4449C433.1 36.2849 432.08 36.0549 431.06 35.7749C430.12 35.5349 429.22 35.2249 428.35 34.8549C427.48 34.4849 426.7 33.9749 426.03 33.2949C425.36 32.6249 424.82 31.7849 424.41 30.7649C424 29.7449 423.8 28.4849 423.8 26.9849C423.8 25.3549 424.1 23.9349 424.71 22.7149C425.32 21.4949 426.15 20.4649 427.21 19.6349C428.27 18.8049 429.48 18.1749 430.84 17.7449C432.2 17.3149 433.66 17.1049 435.2 17.1049C437.15 17.1049 438.77 17.2249 440.05 17.4749C441.33 17.7149 442.56 18.0449 443.74 18.4549C444.68 18.7849 445.36 19.3649 445.78 20.1949C446.21 21.0249 446.26 21.8949 445.93 22.7849C445.64 23.6749 445.1 24.3549 444.28 24.7949C443.47 25.2449 442.59 25.3249 441.66 25.0349C440.48 24.6249 439.45 24.3349 438.58 24.1449C437.71 23.9649 436.74 23.8749 435.68 23.8749C434.22 23.8749 433.16 24.1249 432.51 24.6349C431.86 25.1449 431.53 25.7649 431.53 26.4949C431.53 27.1849 431.73 27.7249 432.14 28.1149C432.55 28.5049 433.1 28.8149 433.79 29.0649C434.48 29.3049 435.27 29.5149 436.17 29.6749C437.06 29.8349 438.02 30.0249 439.04 30.2249C440.06 30.4649 441.06 30.7749 442.06 31.1349C443.06 31.5049 443.95 32.0349 444.74 32.7249C445.53 33.4149 446.17 34.3049 446.66 35.3749C447.15 36.4549 447.39 37.8249 447.39 39.4949C447.39 41.3249 447.02 42.8749 446.29 44.1349" fill="#174F81"/>
<path d="M459.43 11.6449C458.53 12.5149 457.46 12.9549 456.2 12.9549C454.94 12.9549 453.8 12.5149 452.91 11.6449C452.02 10.7749 451.57 9.6849 451.57 8.3849C451.57 7.0849 452.02 5.9949 452.91 5.1249C453.8 4.2549 454.9 3.8149 456.2 3.8149C457.5 3.8149 458.54 4.2549 459.43 5.1249C460.32 5.9949 460.77 7.0849 460.77 8.3849C460.77 9.6849 460.32 10.7749 459.43 11.6449ZM459.1 48.3649C458.31 49.1549 457.34 49.5549 456.2 49.5549C455.06 49.5549 454.03 49.1549 453.24 48.3649C452.45 47.5749 452.05 46.6049 452.05 45.4649V21.2449C452.05 20.1049 452.45 19.1249 453.24 18.3149C454.03 17.5049 455.02 17.0949 456.2 17.0949C457.38 17.0949 458.3 17.5049 459.1 18.3149C459.89 19.1249 460.29 20.1049 460.29 21.2449V45.4649C460.29 46.6049 459.89 47.5649 459.1 48.3649Z" fill="#174F81"/>
<path d="M484.38 48.1249C483.69 48.8349 482.83 49.1949 481.82 49.1949H479.5C477.3 49.1949 475.44 48.8649 473.92 48.1849C472.39 47.5149 471.16 46.5549 470.23 45.3149C469.29 44.0749 468.61 42.5849 468.19 40.8349C467.76 39.0849 467.55 37.1549 467.55 35.0449V24.2449H466.57C465.63 24.2449 464.84 23.9149 464.19 23.2349C463.54 22.5649 463.21 21.7649 463.21 20.8249C463.21 19.8849 463.54 19.0949 464.19 18.4449C464.84 17.7949 465.63 17.4649 466.57 17.4649H467.55V13.3149C467.55 12.1749 467.96 11.2049 468.77 10.3849C469.58 9.5749 470.56 9.1649 471.7 9.1649C472.84 9.1649 473.81 9.5749 474.6 10.3849C475.39 11.1949 475.79 12.1749 475.79 13.3149V17.4649H480.49C481.43 17.4649 482.22 17.7949 482.87 18.4449C483.52 19.0949 483.85 19.8849 483.85 20.8249C483.85 21.7649 483.52 22.5649 482.87 23.2349C482.22 23.9049 481.43 24.2449 480.49 24.2449H475.79V34.9149C475.79 37.3949 476.12 39.1849 476.77 40.2849C477.42 41.3849 478.72 41.9349 480.67 41.9349H481.83C482.85 41.9349 483.7 42.2749 484.39 42.9749C485.08 43.6649 485.43 44.5249 485.43 45.5349C485.43 46.5449 485.08 47.4149 484.39 48.1249" fill="#174F81"/>
<path d="M512.11 35.0349C511.56 35.6049 510.9 35.8849 510.13 35.8849H495.55V37.0449C495.55 38.8749 495.97 40.2949 496.8 41.3149C497.63 42.3349 498.9 42.8349 500.61 42.8349C502.11 42.8349 503.36 42.7249 504.36 42.4949C505.36 42.2749 506.38 41.9349 507.44 41.4849C508.25 41.1549 509.06 41.2049 509.85 41.6049C510.64 42.0149 511.16 42.6649 511.41 43.5549C511.69 44.4949 511.67 45.3149 511.35 46.0249C511.02 46.7349 510.48 47.2549 509.7 47.5849C507.99 48.3549 506.33 48.8749 504.73 49.1449C503.12 49.4049 501.59 49.5449 500.12 49.5449C497.76 49.5449 495.77 49.1749 494.14 48.4449C492.51 47.7149 491.19 46.7349 490.17 45.5149C489.15 44.2949 488.42 42.8849 487.97 41.2749C487.52 39.6649 487.3 37.9749 487.3 36.1849V30.5149C487.3 28.7249 487.55 27.0149 488.06 25.3949C488.57 23.7649 489.35 22.3449 490.41 21.1249C491.47 19.9049 492.8 18.9249 494.41 18.1949C496.02 17.4649 497.94 17.0949 500.17 17.0949C502.4 17.0949 504.46 17.4549 506.09 18.1649C507.72 18.8749 509.03 19.8449 510.02 21.0649C511.02 22.2849 511.75 23.6949 512.22 25.3049C512.69 26.9149 512.92 28.5949 512.92 30.3349V32.9549C512.92 33.7649 512.64 34.4549 512.1 35.0249M500.97 11.3149C500.48 12.1249 499.89 12.6449 499.2 12.8749C498.51 13.0949 497.82 13.0449 497.13 12.7249C496.4 12.3549 495.87 11.8249 495.54 11.1049C495.21 10.3949 495.28 9.6349 495.72 8.8149L499.14 1.9249C499.46 1.1949 500.06 0.634899 500.91 0.244899C501.76 -0.145101 502.68 -0.0651009 503.66 0.454899C504.59 0.944899 505.16 1.6149 505.37 2.4649C505.57 3.3149 505.45 4.0949 505 4.7849L500.97 11.3149ZM503.9 24.9149C503.17 23.9749 501.99 23.5149 500.36 23.5149C498.73 23.5149 497.52 23.9849 496.73 24.9149C495.94 25.8549 495.54 27.1949 495.54 28.9449V29.7349H505V28.9449C505 27.1949 504.63 25.8549 503.9 24.9149Z" fill="#174F81"/>
</svg>
